<?xml version="1.0" standalone="no"?>
<!DOCTYPE svg PUBLIC "-//W3C//DTD SVG 20010904//EN"
 "http://www.w3.org/TR/2001/REC-SVG-20010904/DTD/svg10.dtd">
<svg version="1.0" xmlns="http://www.w3.org/2000/svg"
 width="1167.000000pt" height="1168.000000pt" viewBox="0 0 1167.000000 1168.000000"
 preserveAspectRatio="xMidYMid meet">

<g transform="translate(0.000000,1168.000000) scale(0.100000,-0.100000)"
fill="#000000" stroke="none">
<path d="M5595 11674 c-602 -35 -1063 -119 -1574 -286 -712 -232 -1367 -597
-1951 -1088 -174 -146 -575 -548 -712 -715 -819 -993 -1268 -2131 -1349 -3415
-14 -223 -6 -659 16 -880 166 -1664 988 -3121 2331 -4132 270 -203 573 -388
909 -553 636 -313 1261 -491 2000 -572 126 -14 248 -17 570 -17 439 0 553 7
895 60 1402 215 2677 939 3594 2039 681 818 1130 1825 1285 2880 35 241 51
440 58 720 32 1425 -444 2776 -1368 3886 -132 159 -527 554 -689 691 -383 322
-764 571 -1205 788 -648 319 -1322 507 -2055 575 -158 15 -630 27 -755 19z
m-1569 -4770 c302 -444 553 -817 558 -829 13 -32 -40 -196 -104 -322 -183
-363 -533 -581 -1038 -648 -85 -11 -218 -15 -537 -15 l-425 0 -2 -567 -3 -568
-580 0 -580 0 -3 1865 c-1 1026 0 1871 3 1878 3 9 229 12 1083 12 l1079 0 549
-806z m1323 475 c142 -255 182 -334 175 -348 -18 -36 -609 -871 -616 -868 -7
2 -1098 1534 -1098 1542 0 3 305 5 678 5 l677 0 184 -331z m2219 323 c-1 -5
-272 -403 -601 -885 l-598 -877 664 -983 c365 -541 667 -989 671 -995 5 -9
-159 -12 -691 -12 l-698 0 -321 560 -321 559 -329 -557 -330 -557 -677 -3
c-570 -2 -677 0 -670 11 4 8 600 854 1323 1880 l1315 1867 633 0 c349 0 632
-4 630 -8z m1250 -1389 l2 -1393 830 0 830 0 0 -485 0 -485 -1191 2 -1192 3
-218 320 -218 320 -1 1558 0 1557 578 -2 577 -3 3 -1392z"/>
<path d="M2414 6852 c-159 -55 -236 -238 -172 -409 19 -51 45 -82 217 -258
107 -110 208 -208 223 -219 38 -25 118 -25 157 0 50 33 407 407 432 454 20 38
24 59 24 140 0 79 -4 102 -23 137 -58 110 -142 163 -256 163 -87 0 -137 -21
-206 -86 l-50 -46 -60 55 c-90 84 -180 105 -286 69z m238 -290 l108 -106 108
107 c97 95 113 107 144 107 72 0 125 -81 96 -147 -7 -17 -88 -108 -179 -201
l-167 -170 -175 176 c-145 147 -177 183 -182 214 -13 71 52 147 115 132 14 -3
73 -53 132 -112z"/>
</g>
</svg>
