<svg xmlns="http://www.w3.org/2000/svg" version="1.1" viewBox="-5.0 -10.0 110.0 135.0">
 <path d="m39.023 31.723h-15.445c-1.6953 0-3.0703-1.5391-3.0703-3.4258v-1.8711c0-1.2188 0.93359-2.2148 2.0781-2.2148h17.43c1.1484 0 2.0781 0.99219 2.0781 2.2148v1.8711c0 1.8906-1.375 3.4258-3.0703 3.4258zm-15.391-2.918zm-0.015624-0.007813h15.371l0.003907-0.003906c0.12109-0.13281 0.18359-0.3125 0.17187-0.49609v-1.1484h-15.727v1.1562c-0.007812 0.17969 0.054688 0.35547 0.17969 0.48828z"/>
 <path d="m40.391 21.648h-18.176c-0.80859 0-1.4648-0.65234-1.4648-1.4609 0-4.8516 4.7344-8.8008 10.547-8.8008s10.547 3.9453 10.547 8.8008c0 0.80078-0.64844 1.457-1.4531 1.4609zm-16.469-2.9297h14.766c-0.84766-2.5391-3.8359-4.4062-7.3828-4.4062-3.5508 0-6.5391 1.875-7.3828 4.4062z"/>
 <path d="m38.629 27.148c-0.80859 0-1.4648-0.65625-1.4648-1.4648s0.65625-1.4648 1.4648-1.4648c0.61328 0 1.1133-0.49609 1.1133-1.1094v-0.33984c-0.003907-0.61328-0.5-1.1055-1.1133-1.1133-0.80859 0-1.4648-0.65234-1.4648-1.4609 0-0.8125 0.65625-1.4688 1.4648-1.4688 2.2305 0.003907 4.0391 1.8125 4.043 4.043v0.33984c-0.003906 2.2266-1.8125 4.0352-4.043 4.0391zm-15.027 0c-2.2305-0.003907-4.0391-1.8086-4.0391-4.0391v-0.33984c0-2.2305 1.8086-4.0391 4.0391-4.043 0.80859 0 1.4648 0.65625 1.4648 1.4688 0 0.80859-0.65625 1.4609-1.4648 1.4609-0.61328 0.003906-1.1094 0.5-1.1094 1.1133v0.33984c0 0.61328 0.49609 1.1094 1.1094 1.1094 0.80859 0 1.4648 0.65625 1.4648 1.4648s-0.65625 1.4648-1.4648 1.4648z"/>
 <path d="m90.074 95.996h-80.148c-0.80859 0-1.4648-0.65625-1.4648-1.4648v-89.062c0-0.80859 0.65625-1.4648 1.4648-1.4648h80.148c0.38672 0 0.76172 0.15625 1.0352 0.42969 0.27344 0.27344 0.42969 0.64844 0.42969 1.0352v89.062c0 0.38672-0.15625 0.76172-0.42969 1.0352-0.27344 0.27344-0.64844 0.42969-1.0352 0.42969zm-78.684-2.9297h77.219v-86.133h-77.219z"/>
 <path d="m41.094 58.031h-19.953c-2.1289 0-3.8516-1.7227-3.8516-3.8516 0-2.1289 1.7227-3.8516 3.8516-3.8516h19.953c2.125 0 3.8516 1.7227 3.8516 3.8516 0 2.1289-1.7266 3.8516-3.8516 3.8516zm-19.953-4.7734c-0.51172 0-0.92188 0.41016-0.92188 0.92188 0 0.51172 0.41016 0.92187 0.92188 0.92187h19.953c0.50781 0 0.92188-0.41016 0.92188-0.92187 0-0.51172-0.41406-0.92188-0.92188-0.92188z"/>
 <path d="m41.539 53.297c-0.80078 0.003906-1.457-0.64453-1.4609-1.4492-0.074219-4.8984-4.0664-8.8281-8.9609-8.8281-4.8984 0-8.8867 3.9297-8.9609 8.8281-0.007812 0.80859-0.66797 1.457-1.4766 1.4492-0.8125-0.003906-1.4609-0.66797-1.4531-1.4766 0.082032-6.5078 5.3828-11.738 11.891-11.738 6.5078 0 11.805 5.2305 11.891 11.738 0.003907 0.38672-0.14844 0.76172-0.42187 1.0391-0.26953 0.27734-0.64453 0.4375-1.0312 0.4375z"/>
 <path d="m31.117 42.969c-0.8125 0-1.4688-0.65625-1.4688-1.4648v-2.6016c0-0.80859 0.65625-1.4648 1.4688-1.4648 0.80859 0 1.4609 0.65625 1.4609 1.4648v2.6055c0 0.38672-0.15234 0.76172-0.42969 1.0352-0.27344 0.27344-0.64453 0.42578-1.0312 0.42578z"/>
 <path d="m35.938 87.656h-9.6406c-0.49219 0-0.76562-0.16406-1.7148-0.86719-0.67188-0.5-1.3164-1.0352-1.9297-1.6055-2.0312-1.9062-3.0625-3.7109-3.0625-5.3672l-0.003906-0.003906c0-0.80859 0.65625-1.4609 1.4688-1.4609h20.125c0.38672 0 0.76172 0.15234 1.0352 0.42578 0.27344 0.27734 0.42969 0.64844 0.42969 1.0352 0 1.6562-1.0312 3.4609-3.0625 5.3672l-0.003906 0.003906c-0.61328 0.57031-1.2578 1.1055-1.9297 1.6055-0.94922 0.71094-1.2227 0.86719-1.7109 0.86719zm-8.918-2.7344zm-0.29297-0.19531h8.7891c1-0.67187 2.7344-2.1172 3.625-3.4453h-16.047c0.89844 1.3359 2.625 2.7734 3.625 3.4453z"/>
 <path d="m37.438 81.281c-0.42578-0.003906-0.82812-0.19141-1.1094-0.51172-0.27734-0.32422-0.40234-0.75391-0.33594-1.1758 0.375-2.4609-0.47266-4.0859-0.83203-4.1992-0.10156 0.023438-0.21094 0.046875-0.32031 0.070313-0.79688 0.15234-0.85938 0.17578-1.0195 0.67578-0.21484 0.66406-0.86719 1.0859-1.5586 1.0078-0.69531-0.078126-1.2383-0.63281-1.3008-1.3281-0.0625-0.73437-0.25781-1.125-0.39844-1.2305v0.003906c-0.10156-0.050781-0.21484-0.058594-0.32031-0.03125-0.31641 0.070312-0.375 0.078125-0.82813 0.95703-0.23828 0.46484-0.70312 0.76562-1.2227 0.79297-0.51953 0.027344-1.0156-0.22266-1.3008-0.65625-0.046875-0.066406-0.125-0.19531-0.19531-0.28906-0.54687 0.61719-1.5195 2.7656-1.6719 4.5703h0.003906c-0.070313 0.80859-0.78125 1.4102-1.5898 1.3398-0.80859-0.066406-1.4102-0.77734-1.3398-1.5859 0.19531-2.2734 1.6953-6.7578 3.8828-7.2266h-0.003907c0.625-0.16016 1.2891-0.10938 1.8828 0.14062 0.48828-0.46875 1.1055-0.78516 1.7695-0.91016 0.92578-0.21484 1.8984-0.019531 2.6719 0.53906 0.26172 0.19922 0.5 0.43359 0.69531 0.69922 0.41406-0.16406 0.84375-0.28125 1.2852-0.35547 0.089844-0.015625 0.17969-0.03125 0.27344-0.054687l-0.003907 0.003906c0.98438-0.20703 2.0078 0.10156 2.7227 0.8125 1.3945 1.3203 2.0234 3.9453 1.6094 6.6914h-0.003906c-0.10938 0.71484-0.71875 1.2422-1.4414 1.25z"/>
 <path d="m34.859 75.43c-0.51953-0.003907-0.99609-0.28125-1.2578-0.73047-0.26172-0.45312-0.26172-1.0039-0.007812-1.457l3.3672-5.8281c0.19141-0.33984 0.51172-0.58594 0.88672-0.68359 0.375-0.10156 0.77734-0.050781 1.1133 0.14453 0.69922 0.40625 0.94141 1.3008 0.53906 2l-3.3672 5.8203c-0.26172 0.45703-0.75 0.73438-1.2734 0.73438z"/>
 <path d="m77.711 24.34h-25.539c-0.80859 0-1.4648-0.65625-1.4648-1.4648s0.65625-1.4648 1.4648-1.4648h25.539c0.80859 0 1.4609 0.65625 1.4609 1.4648s-0.65234 1.4648-1.4609 1.4648z"/>
 <path d="m77.711 54.152h-25.539c-0.80859 0-1.4648-0.65625-1.4648-1.4648s0.65625-1.4648 1.4648-1.4648h25.539c0.80859 0 1.4609 0.65625 1.4609 1.4648s-0.65234 1.4648-1.4609 1.4648z"/>
 <path d="m77.711 83.969h-25.539c-0.80859 0-1.4648-0.65625-1.4648-1.4688 0-0.80859 0.65625-1.4609 1.4648-1.4609h25.539c0.80859 0 1.4609 0.65234 1.4609 1.4609 0 0.8125-0.65234 1.4688-1.4609 1.4688z"/>
</svg>